<?xml version="1.0" standalone="no"?>
<!DOCTYPE svg PUBLIC "-//W3C//DTD SVG 20010904//EN"
 "http://www.w3.org/TR/2001/REC-SVG-20010904/DTD/svg10.dtd">
<svg version="1.0" xmlns="http://www.w3.org/2000/svg"
 width="512.000000pt" height="512.000000pt" viewBox="0 0 512.000000 512.000000"
 preserveAspectRatio="xMidYMid meet">
<metadata>
Created by potrace 1.14, written by Peter Selinger 2001-2017
</metadata>
<g transform="translate(0.000000,512.000000) scale(0.100000,-0.100000)"
fill="#000000" stroke="none">
<path d="M0 2560 l0 -2560 2560 0 2560 0 0 2560 0 2560 -2560 0 -2560 0 0
-2560z m5010 0 l0 -2450 -2450 0 -2450 0 0 2450 0 2450 2450 0 2450 0 0 -2450z"/>
<path d="M355 4758 c-3 -7 -4 -1001 -3 -2208 l3 -2195 2205 0 2205 0 0 2205 0
2205 -2203 3 c-1757 2 -2204 0 -2207 -10z m4355 -2198 l0 -2150 -2150 0 -2150
0 0 2150 0 2150 2150 0 2150 0 0 -2150z"/>
<path d="M2640 4320 c-79 -8 -161 -53 -242 -134 -68 -66 -88 -78 -111 -65 -27
15 -48 3 -97 -56 -33 -41 -51 -55 -70 -55 -31 0 -167 -98 -184 -132 -6 -13
-23 -24 -36 -26 -55 -8 -110 -89 -110 -164 0 -20 -7 -28 -31 -37 l-32 -11 6
-60 c5 -57 4 -60 -21 -72 -41 -21 -65 -74 -59 -130 6 -48 6 -48 -23 -48 -16 0
-32 -4 -35 -10 -3 -5 -20 -10 -36 -10 -41 0 -90 -75 -82 -125 5 -30 1 -35 -39
-63 -31 -21 -48 -42 -57 -69 -12 -35 -11 -43 8 -76 12 -21 21 -46 21 -56 0
-10 3 -21 7 -25 15 -15 33 -84 33 -128 0 -37 4 -48 19 -53 11 -3 22 -12 24
-19 3 -8 22 -19 42 -26 28 -9 35 -16 30 -30 -8 -25 19 -39 94 -46 l59 -7 -5
-31 c-6 -37 7 -50 55 -59 25 -5 37 -2 53 14 15 15 29 20 50 15 18 -3 33 0 43
9 17 18 61 19 105 4 43 -15 79 -4 87 26 5 21 12 25 46 25 22 0 48 4 58 10 19
10 155 -2 220 -20 19 -5 67 -17 105 -26 92 -21 149 -46 203 -91 58 -48 98
-111 106 -170 3 -27 15 -76 26 -111 17 -53 18 -71 9 -107 -14 -57 12 -158 39
-153 27 5 28 208 1 308 -36 134 -39 147 -38 186 0 21 -4 61 -9 89 -12 58 -7
72 9 27 8 -25 17 -32 36 -32 l26 0 -6 138 c-6 144 -25 227 -78 335 -20 41 -21
49 -9 57 25 16 29 12 43 -37 9 -31 21 -52 35 -58 15 -6 22 -19 22 -37 0 -37
10 -58 26 -58 18 0 18 -9 -1 -53 -19 -47 -19 -90 1 -128 16 -32 27 -254 24
-486 -2 -86 2 -110 19 -145 34 -70 74 -108 115 -108 20 0 36 5 36 10 0 6 -4
10 -9 10 -14 0 -58 109 -75 187 -18 83 -22 317 -6 375 10 33 7 46 -21 110 -44
99 -39 161 20 245 108 153 134 188 163 221 17 20 39 54 49 77 10 23 42 66 72
96 40 40 62 74 86 134 63 153 69 165 89 165 10 0 37 16 60 36 31 26 42 43 42
64 0 39 17 80 32 80 7 0 21 7 31 14 15 11 19 32 22 111 3 85 2 98 -16 116 -10
10 -29 19 -41 19 -38 0 -49 13 -39 46 4 16 7 61 6 99 -4 116 -52 173 -147 174
-26 1 -58 5 -73 11 -20 7 -34 6 -56 -5 -40 -21 -72 -21 -148 0 -69 19 -109 13
-176 -27 -36 -22 -63 -22 -89 -3 -12 9 -42 15 -75 15 -33 1 -64 7 -75 15 -21
16 -49 17 -156 5z m115 -60 c3 -5 20 -10 37 -10 16 0 41 -9 55 -20 21 -16 37
-19 97 -16 70 4 137 24 150 45 11 17 53 13 60 -5 4 -11 18 -15 48 -13 24 1 51
-2 61 -6 16 -7 16 -9 3 -24 -8 -9 -25 -38 -38 -66 -16 -35 -33 -55 -56 -65
-60 -29 -90 -66 -99 -123 -6 -38 -13 -53 -26 -55 -10 -2 -34 -19 -53 -39 -36
-35 -77 -53 -127 -53 -21 0 -31 -7 -44 -35 -9 -19 -21 -35 -25 -35 -11 0 -57
29 -85 53 -26 23 -69 17 -78 -13 -3 -10 3 -38 14 -62 l20 -43 -27 -22 c-15
-12 -41 -22 -58 -23 -17 0 -37 -7 -44 -16 -10 -11 -28 -14 -70 -12 -34 1 -63
-2 -72 -9 -11 -10 -25 -9 -63 2 -43 14 -51 13 -73 -1 -21 -14 -23 -21 -19 -52
4 -21 20 -49 38 -69 18 -18 31 -35 28 -37 -2 -2 -45 -6 -95 -9 -99 -4 -137
-18 -168 -60 l-20 -27 21 -43 c13 -27 19 -54 16 -74 -4 -27 -1 -34 21 -44 36
-17 33 -41 -9 -78 -37 -32 -72 -39 -107 -20 -19 10 -25 7 -47 -20 -17 -21 -35
-31 -53 -31 -35 0 -61 -26 -52 -54 11 -37 34 -66 52 -66 10 0 24 -6 30 -12 7
-7 46 -15 87 -19 41 -3 78 -8 81 -12 3 -3 0 -21 -7 -40 -10 -29 -10 -38 4 -58
10 -13 17 -34 17 -46 0 -16 8 -24 28 -29 15 -4 32 -10 37 -15 6 -4 26 -9 45
-11 l35 -4 -39 -8 c-28 -7 -47 -5 -72 8 -19 9 -45 16 -57 16 -34 0 -67 -28
-67 -56 0 -32 -23 -27 -25 4 -3 38 -20 48 -58 34 -18 -7 -41 -12 -49 -12 -9 0
-30 -11 -46 -25 -17 -14 -32 -25 -35 -25 -3 0 -10 14 -16 31 -9 26 -8 34 5 44
39 28 -14 83 -93 96 -27 5 -63 11 -81 15 -30 6 -32 4 -38 -25 -7 -35 -15 -38
-34 -16 -10 12 -10 21 -1 41 11 25 1 64 -18 64 -4 0 -18 29 -30 65 -13 36 -27
68 -32 71 -5 3 -9 20 -9 37 0 33 7 40 75 78 27 15 30 21 27 59 -5 57 13 90 49
90 15 0 31 5 34 10 10 16 24 2 41 -38 28 -67 90 -114 109 -82 3 6 -6 56 -21
113 -36 138 -37 143 -30 171 5 22 11 25 49 23 41 -2 42 -1 39 28 -2 17 -4 52
-5 79 -2 46 0 51 23 56 21 5 25 12 26 46 2 73 4 84 18 84 8 0 21 12 29 28 7
15 19 26 27 24 15 -4 70 46 70 64 0 7 20 27 44 43 39 27 45 29 50 13 11 -29
35 -69 50 -81 24 -20 53 29 61 104 5 52 12 71 36 96 28 30 31 31 48 15 19 -17
61 -22 61 -6 0 5 36 45 81 89 70 71 84 81 112 78 27 -2 34 3 46 31 l15 32 77
0 c43 0 81 -4 84 -10z m745 -5 c7 -8 21 -15 32 -15 12 0 24 -12 34 -35 21 -51
17 -89 -11 -123 -24 -28 -26 -62 -4 -62 14 0 11 -36 -7 -74 -11 -21 -14 -44
-10 -60 6 -25 10 -26 44 -20 20 3 43 12 51 20 12 11 16 9 28 -13 16 -32 17
-79 1 -90 -7 -4 -22 -9 -33 -10 -26 -5 -38 -18 -40 -45 -2 -24 -25 -38 -25
-15 0 9 -12 29 -26 46 -20 24 -25 39 -21 64 6 42 -16 94 -46 108 -21 9 -30 8
-55 -11 -17 -13 -36 -37 -42 -53 -5 -17 -19 -37 -31 -45 -17 -12 -20 -21 -14
-48 4 -26 2 -34 -9 -34 -8 0 -28 -11 -44 -25 -25 -21 -34 -24 -56 -15 -18 7
-26 17 -26 35 0 14 -9 30 -20 37 -11 7 -20 19 -20 26 0 7 -11 24 -25 38 -29
29 -22 34 52 37 48 2 48 2 74 56 15 30 25 59 23 65 -2 6 8 18 23 26 22 13 28
23 29 55 5 115 19 165 48 165 12 0 31 7 42 15 25 19 68 19 84 0z m-283 -246
c0 -25 -6 -33 -29 -41 -15 -6 -28 -16 -28 -24 0 -8 -7 -14 -15 -14 -10 0 -15
10 -15 28 0 32 6 42 40 64 36 25 47 22 47 -13z m253 -223 c0 -27 7 -47 21 -63
l22 -22 -27 -11 c-18 -6 -28 -19 -32 -40 -7 -32 -30 -57 -42 -46 -4 4 -7 26
-8 49 0 23 -4 63 -8 88 -8 42 -6 47 24 78 38 38 50 30 50 -33z m-378 -16 c5
-16 16 -31 24 -34 8 -3 14 -16 14 -29 0 -39 30 -58 99 -60 44 -1 66 -6 77 -18
14 -16 14 -18 -5 -24 -12 -3 -21 -10 -21 -14 0 -4 -9 -17 -20 -29 -20 -22 -20
-22 -40 -2 -24 24 -34 25 -50 5 -7 -8 -25 -15 -39 -15 -21 0 -31 8 -44 35 -9
20 -24 38 -32 41 -23 9 -85 -24 -97 -52 -12 -27 -34 -30 -74 -12 -24 11 -29
10 -50 -15 -13 -16 -24 -38 -24 -50 0 -48 86 -91 180 -89 35 0 50 -15 50 -53
0 -49 -31 -65 -128 -64 -44 0 -89 -4 -100 -10 -31 -17 -82 -14 -82 4 0 16 -38
35 -70 35 -11 0 -26 -13 -35 -30 -9 -18 -26 -32 -43 -36 -32 -8 -62 -32 -62
-49 0 -8 -26 -15 -76 -20 -68 -6 -76 -9 -85 -32 -5 -13 -9 -35 -9 -48 0 -32
-25 -23 -46 16 -17 34 -43 37 -69 9 -10 -11 -29 -20 -42 -20 -19 0 -23 5 -23
31 0 17 -6 43 -13 57 -8 15 -26 50 -40 78 -15 29 -27 57 -27 62 0 16 40 26 53
13 16 -16 57 -13 63 4 5 11 21 15 59 15 84 0 105 12 105 60 0 32 -6 45 -30 67
-16 14 -30 30 -30 35 0 12 40 0 61 -18 23 -20 58 -17 77 6 12 14 34 22 72 25
30 3 59 10 64 15 6 6 22 10 36 10 16 0 41 14 65 36 31 28 39 42 38 70 -1 19 0
34 1 34 1 0 22 -10 46 -21 40 -19 47 -20 70 -7 15 8 26 24 28 41 3 21 11 28
40 37 20 5 44 10 53 10 9 0 27 8 39 18 33 27 79 17 92 -18z m475 -127 c6 -16
-36 -28 -50 -14 -9 9 -8 14 3 21 19 12 42 9 47 -7z m-505 -114 c17 -29 21 -30
75 -28 51 3 58 1 61 -17 2 -11 -20 -52 -50 -94 l-53 -75 -5 52 c-6 62 -27 82
-82 83 -20 0 -47 4 -60 9 -13 5 -35 12 -50 15 -16 4 -28 13 -28 22 0 12 7 14
33 9 17 -4 34 -7 37 -7 26 -1 37 6 52 32 22 38 48 38 70 -1z m289 -53 c-4 -94
-19 -134 -76 -201 -23 -27 -52 -68 -63 -90 -11 -22 -37 -56 -57 -75 -20 -19
-52 -63 -72 -97 -19 -35 -39 -66 -45 -69 -27 -17 40 204 76 251 82 109 176
257 186 295 7 25 14 51 16 58 2 8 12 12 21 10 16 -3 18 -13 14 -82z m76 52
c-3 -8 -6 -5 -6 6 -1 11 2 17 5 13 3 -3 4 -12 1 -19z m-493 -284 c13 -5 16
-20 15 -73 -1 -36 -5 -79 -9 -96 -6 -27 -8 -28 -14 -10 -5 11 -15 35 -23 53
-18 41 -27 96 -20 117 7 16 25 19 51 9z m-157 -60 c-3 -3 -13 0 -21 9 -8 8
-12 18 -9 21 4 4 14 0 22 -9 8 -8 12 -17 8 -21z m247 8 c2 -4 -2 -18 -10 -32
l-13 -25 -1 33 c0 29 12 43 24 24z m-279 -112 c12 -20 39 -74 58 -120 67 -159
90 -284 34 -184 -15 27 -46 78 -68 114 -49 77 -89 164 -89 194 -1 11 -7 32
-15 46 -43 74 29 30 80 -50z m-151 44 c4 -9 4 -19 1 -22 -7 -8 -35 19 -29 29
8 14 21 11 28 -7z m-85 -66 c33 -39 60 -73 58 -74 -8 -9 -199 17 -223 30 l-29
15 37 1 c44 0 61 23 52 69 -6 28 -4 31 19 31 19 0 40 -18 86 -72z m-306 -7
c18 -18 0 -24 -39 -14 -53 12 -60 38 -9 30 21 -4 43 -11 48 -16z m460 -72 c21
-38 22 -49 2 -49 -16 0 -19 5 -29 53 -8 36 5 34 27 -4z m-633 12 c19 -5 60
-16 90 -24 30 -8 107 -20 170 -26 63 -7 129 -14 145 -16 17 -3 58 -9 92 -14
83 -12 133 -38 158 -83 11 -20 26 -46 33 -57 12 -20 11 -21 -20 -21 -65 1
-122 21 -192 70 -62 44 -80 51 -142 59 -74 9 -157 1 -195 -20 -19 -10 -24 -9
-28 2 -2 8 -19 29 -37 47 -30 30 -36 32 -102 32 -63 0 -71 2 -77 21 -12 37 31
49 105 30z m331 -195 c25 -8 86 -37 135 -64 49 -28 112 -56 139 -63 73 -18
144 -56 157 -84 15 -34 4 -41 -29 -18 -59 41 -149 74 -228 83 -132 16 -197 32
-258 63 -38 19 -65 27 -81 23 -16 -4 -32 1 -47 13 l-23 18 60 21 c71 25 114
26 175 8z m454 -112 c8 -20 15 -38 15 -40 0 -2 -16 6 -35 17 -38 23 -41 29
-23 47 19 19 27 15 43 -24z"/>
<path d="M2797 4114 c-4 -4 -7 -15 -7 -24 0 -11 -11 -20 -30 -24 -22 -4 -35
-15 -46 -38 -8 -18 -19 -40 -26 -49 -6 -9 -8 -24 -5 -33 7 -17 54 -20 137 -8
44 7 45 8 52 54 7 37 4 56 -9 85 -17 36 -49 54 -66 37z m13 -113 c0 -12 -29
-23 -41 -15 -5 3 -7 10 -4 15 8 12 45 12 45 0z"/>
<path d="M2455 3810 c-38 -25 -122 -27 -189 -4 -42 15 -50 15 -62 2 -13 -13
-13 -19 6 -51 22 -38 105 -87 146 -87 12 0 24 -7 28 -15 6 -18 45 -35 64 -28
6 3 12 21 12 41 0 27 7 41 31 61 38 32 47 94 14 99 -11 1 -33 -7 -50 -18z
m-40 -79 c9 -15 -14 -23 -43 -16 l-27 8 25 7 c35 11 38 11 45 1z"/>
<path d="M1855 3379 c-4 -5 0 -18 8 -27 8 -9 18 -42 21 -73 7 -52 5 -58 -21
-85 -15 -16 -39 -37 -53 -46 l-25 -17 24 -21 c29 -25 49 -22 137 20 34 17 69
30 78 30 27 0 30 29 6 55 -14 15 -20 30 -16 42 7 21 -26 63 -48 63 -8 0 -26
16 -40 35 -27 34 -58 45 -71 24z m115 -174 c0 -2 -9 -9 -20 -15 -16 -9 -20 -8
-20 5 0 8 9 15 20 15 11 0 20 -2 20 -5z"/>
<path d="M2504 1596 c-139 -27 -258 -119 -317 -243 -28 -60 -32 -78 -32 -153
0 -75 4 -93 32 -153 39 -82 117 -163 193 -200 142 -69 372 -75 502 -13 49 23
62 40 54 71 -10 39 -49 43 -96 10 -47 -32 -140 -65 -185 -65 -44 0 -149 36
-196 67 -31 20 -37 29 -28 39 6 8 16 14 21 14 5 0 37 13 71 29 252 119 362
174 430 214 43 26 81 47 83 47 2 0 4 -23 4 -51 0 -157 111 -311 269 -373 117
-45 274 -58 399 -31 141 29 181 59 148 110 -21 32 -25 31 -91 -6 -106 -60
-198 -72 -303 -40 -85 26 -141 61 -195 121 -61 67 -81 129 -75 229 8 130 74
222 204 283 137 64 263 54 400 -32 27 -17 51 -8 65 24 23 50 -15 78 -138 102
-154 29 -341 10 -453 -46 -70 -35 -158 -117 -181 -167 -7 -18 -17 -33 -20 -33
-3 0 -11 18 -18 39 -14 48 -89 133 -146 167 -85 49 -263 67 -401 40z m260 -74
c127 -57 186 -176 116 -236 -59 -49 -434 -244 -502 -261 -23 -6 -29 -2 -42 24
-9 16 -22 57 -30 89 -24 105 7 205 88 287 111 111 254 148 370 97z"/>
<path d="M1574 1592 c-6 -4 -14 -40 -18 -81 -3 -40 -10 -92 -16 -115 -5 -22
-14 -70 -20 -106 -25 -141 -48 -233 -76 -297 -28 -65 -91 -134 -144 -158 -22
-10 -40 -22 -40 -26 0 -15 71 -21 117 -10 154 39 205 113 263 376 15 71 70
353 70 361 0 3 57 3 128 2 l127 -3 5 -360 5 -360 38 -9 c53 -14 113 3 108 29
-9 43 -11 667 -3 698 19 68 21 67 -271 67 -144 0 -267 -4 -273 -8z"/>
</g>
</svg>
