<svg width="2009" height="672" viewBox="0 0 2009 672" fill="none" xmlns="http://www.w3.org/2000/svg">
<path d="M2009 671.745C1948.77 671.745 1326.43 671.802 1266.2 671.745C1124.96 671.661 983.714 671.491 842.47 671.463C570.561 671.406 298.653 671.463 26.7446 671.463C24.0572 671.463 21.3698 671.463 18.343 671.463V659.503H430.562C429.232 654.809 428.186 650.992 427.083 647.203C425.329 641.068 423.377 634.989 421.793 628.825C420.067 622.18 419.954 615.423 422.302 608.891C425.385 600.296 424.876 591.87 421.934 583.472C417.38 570.466 413.957 557.121 411.892 543.521C409.515 527.8 400.774 515.529 389.289 505.18C382.953 499.469 376.05 494.295 369.091 489.318C358.03 481.373 344.707 478.037 331.779 474.418C318.851 470.799 305.867 467.519 292.656 465.059C280.548 462.825 268.328 460.931 256.107 459.574C249.261 458.81 242.359 458.556 235.485 458.075C231.892 457.821 228.611 458.527 225.952 461.242C223.802 463.419 221.256 464.098 218.597 462.175C216.39 460.592 214.099 461.157 211.751 461.553C204.339 462.769 200.04 460.761 196.192 453.891C190.45 454.513 184.368 452.759 178.144 454.824C179.87 457.368 181.256 459.376 182.755 461.609C182.755 461.609 183.151 461.807 183.434 461.694C189.545 459.178 189.969 459.291 193.448 464.918C194.608 466.784 195.853 468.593 196.73 470.572C198.144 473.796 197.352 476.058 194.099 477.132C188.158 479.111 182.274 479.705 176.504 475.888C174.948 474.842 172.289 474.955 170.252 475.266C166.49 475.832 163.208 475.549 159.757 473.57C157.862 472.495 155.033 473.117 152.147 472.948C152.147 472.948 151.553 472.523 151.61 472.156C152.147 468.508 152.176 465.144 149.63 461.977C149.036 461.242 150.026 459.008 150.676 457.651C151.072 456.831 152.232 456.407 153.024 455.813C152.883 455.474 152.741 455.135 152.6 454.795C151.157 455.248 149.63 455.474 148.328 456.181C146.914 456.944 145.641 458.075 144.425 459.15C141.85 461.383 139.163 462.118 135.853 460.705C134.241 460.026 132.147 458.754 130.818 461.411C134.608 463.787 138.399 465.851 141.85 468.395C147.282 472.41 146.999 477.302 141.398 481.515C138.767 480.299 136.249 478.97 133.59 477.98C132.345 477.528 130.676 477.33 129.488 477.782C126.575 478.885 124.227 478.32 121.794 476.623C120.323 475.605 118.625 474.729 116.9 474.276C115.768 473.994 114.439 474.587 111.978 475.012C114.043 477.076 115.287 478.093 116.221 479.309C117.296 480.723 118.427 482.25 118.965 483.89C119.729 486.293 118.456 488.131 116.334 489.29C114.241 490.449 112.43 489.799 111.016 488.074C110.224 487.113 109.573 486.039 108.498 484.512C106.461 485.643 104.51 486.802 102.501 487.848C100.493 488.894 98.4558 487.905 97.8335 485.756C97.2677 483.833 96.1927 482.052 95.0046 479.451C96.023 478.659 97.5506 477.5 98.9933 476.284C100.606 474.927 101.681 473.4 100.662 471.053C98.6821 466.586 96.8151 462.062 94.75 457.199C93.8731 457.905 92.6567 458.499 92.0909 459.461C90.3653 462.486 87.7911 462.656 84.651 462.175C82.0485 461.779 79.4177 461.723 76.8152 461.977C74.0146 462.232 71.5535 461.977 69.0924 460.478C67.9609 459.772 66.1504 459.178 65.0472 459.602C60.8605 461.214 57.2961 458.923 53.1943 458.556C53.1943 454.88 56.6172 455.021 58.2579 453.466C60.0967 451.713 62.1052 450.158 64.8209 447.896H68.3286L72.3456 440.545C74.8633 441.959 76.7869 443.231 78.8519 444.192C80.5209 444.956 82.5011 445.465 83.7458 443.429C85.6411 440.319 87.9608 441.393 90.0541 442.609C91.3837 441.082 92.3172 439.244 93.7882 438.537C95.3724 437.802 97.4374 438.113 100.04 437.944C95.1461 432.939 90.1956 429.885 84.5945 427.793C81.7373 426.719 78.9934 426.436 76.0797 427.51C74.7501 428.019 72.9962 428.726 71.893 428.274C68.3852 426.832 65.2169 426.238 61.8223 428.557C61.3414 428.896 59.248 427.652 58.5125 426.69C57.6356 425.475 57.4093 423.806 56.8435 422.195C53.7318 423.043 53.1943 424.57 54.4956 426.747C55.712 428.754 57.1264 430.677 58.7106 433.024C62.5578 433.194 66.2919 434.438 68.6115 438.679C65.7261 440.093 63.4347 441.987 60.9171 442.27C55.7968 442.863 50.5635 442.609 45.3867 442.722C42.7842 438.792 36.8436 439.838 34.4674 435.371C33.8733 434.268 32.1477 433.731 30.8747 433.052C29.7432 432.458 28.4985 432.119 27.367 431.525C21.8507 428.557 21.1718 425.362 25.0473 420.074C24.2835 419.424 23.4349 418.83 22.756 418.038C21.3981 416.483 21.7376 414.9 23.3783 413.882C24.9059 412.921 26.7446 412.468 28.3005 411.564C29.2906 410.97 30.6201 410.008 30.7333 409.075C30.8464 408.142 29.7998 406.361 28.9511 406.163C25.1605 405.202 23.0671 402.629 20.9172 399.603C19.0219 396.946 18.6541 397.228 19.4179 393.609C18.3147 392.309 16.9568 391.093 16.2213 389.594C15.9384 389.001 17.0134 387.756 17.6357 386.512C14.8918 385.579 13.2228 383.855 13.0813 380.688C12.855 375.231 12.2327 369.83 7.81966 365.787C7.31047 365.335 6.88615 364.43 6.85786 363.751C6.71641 359.878 5.01911 356.909 2.30342 354.166C-1.20435 350.604 -0.808308 349.501 4.19874 346.447C4.56649 344.185 4.56649 341.726 5.47172 339.605C6.5184 337.145 7.84795 333.865 9.91301 333.017C15.8253 330.614 20.1534 325.072 27.0558 324.987L28.1025 319.049L33.5904 321C34.7785 316.646 34.722 312.716 32.4872 308.871C28.3854 301.717 30.2241 293.715 36.5041 288.909C38.3712 287.467 39.6159 284.979 40.7474 282.773C43.1236 278.051 46.5465 276.496 51.4687 278.249C58.3994 280.709 58.4277 280.737 62.19 274.319C63.2933 272.453 64.5945 271.181 66.9425 271.294C69.1207 271.407 70.1108 272.736 70.7897 274.574C72.1193 278.108 74.9764 280.144 78.371 280.992C81.5959 281.784 82.586 283.621 82.3314 286.477C82.0202 290.294 83.2932 293.631 85.1037 296.882C85.5563 297.674 86.4332 298.466 86.4049 299.229C86.1503 305.138 90.9594 306.241 94.8066 308.56C97.3526 304.799 96.9282 301.576 94.6934 297.872C92.2889 293.885 90.5633 289.474 88.8094 285.148C88.3003 283.932 88.668 282.321 88.7529 280.907C89.0923 276.298 88.668 275.676 84.1984 274.461C83.6892 274.319 83.1801 274.121 82.6992 273.895C82.5577 273.839 82.4445 273.641 81.9354 273.075C81.8788 271.463 84.1701 269.117 81.6808 267.137C81.4827 266.968 82.1334 265.554 82.5294 264.791C83.9721 261.992 84.6793 259.447 81.511 257.157C80.6907 256.563 80.3512 255.036 80.2098 253.877C80.04 252.463 80.5209 250.964 80.3512 249.522C80.04 246.61 79.5308 243.754 79.0217 240.418C86.1786 238.948 86.1786 232.671 86.0938 226.45C91.1574 225.376 95.4289 222.69 99.1913 223.255C102.841 226.139 105.528 228.373 108.385 230.381C108.781 230.663 110.082 229.617 111.836 228.769C109.913 227.412 108.753 226.281 107.395 225.715C104.736 224.613 103.972 223.058 104.538 220.174C105.528 215.112 104.792 210.249 102.529 205.443C101.568 203.407 102.275 200.608 101.992 198.204C101.596 194.84 100.973 191.503 100.379 187.743C101.313 187.064 102.671 185.905 104.17 184.972C105.047 184.435 106.433 183.615 107.055 183.954C111.214 186.131 115.655 183.134 119.814 184.859C120.21 185.028 120.973 184.293 122.275 183.586C117.268 181.183 117.013 177.225 117.466 173.04C117.805 170.015 116.872 167.074 119.022 163.907C120.436 161.815 120.323 158.252 121.256 155.312C122.756 150.562 124.255 146.038 127.367 142.108C127.932 141.401 128.244 140.496 128.668 139.704C129.177 139.704 129.686 139.704 130.195 139.704C130.789 140.807 131.384 141.91 131.978 143.041C132.713 142.503 133.364 142.277 133.505 141.853C134.241 139.789 134.778 137.669 135.457 135.604C136.872 131.335 141.567 129.356 145.669 131.165C147.253 131.872 148.781 132.777 150.563 133.682C152.176 131.533 153.052 128.988 156.164 128.225C158.625 127.631 160.605 121.269 159.842 118.329C159.672 117.678 159.361 117.028 159.361 117C162.727 114.625 165.726 112.504 168.753 110.355C173.222 107.189 177.748 104.135 182.133 100.883C186.376 97.7449 190.563 94.5782 194.636 91.2135C198.569 87.9337 203.774 87.453 208.13 90.0543C209.743 91.0156 211.666 91.468 214.212 92.4293L209.573 98.5649L210.393 102.919C208.837 103.258 207.508 103.258 206.489 103.852C205.16 104.644 203.236 105.831 203.18 106.934C203.123 108.433 204.424 110.101 205.443 111.486C205.895 112.108 207.027 112.504 207.875 112.533C211.298 112.646 211.836 114.455 211.015 117.311C210.874 117.792 211.015 118.329 211.015 118.838C213.986 118.696 215.853 116.774 215.655 114.003C215.598 113.126 215.287 112.193 214.863 111.402C212.911 107.726 213.561 104.361 216.051 101.223C218.286 98.4235 218.908 95.5113 217.578 92.0618C216.56 89.4322 216.419 86.6331 218.342 84.258C223.123 78.3204 227.847 72.2696 232.939 66.5864C234.919 64.3528 238.031 63.1652 240.209 61.0729C241.624 59.7157 242.246 57.5386 243.434 55.3332C246.715 55.9552 250.252 56.4359 251.27 61.2426C256.503 59.9985 258.285 63.2501 258.964 68.0002C261.708 65.6817 261.567 62.8542 262.048 60.253C262.783 56.4924 263.887 54.9939 267.168 55.0504C274.184 55.1635 276.899 50.3569 279.417 45.1544C280.577 42.7793 281.652 40.3477 282.84 37.803C285.81 38.7926 288.441 40.2063 289.488 36.361C289.601 35.9086 290.223 35.2583 290.563 35.2866C295.089 35.5693 295.853 31.5261 297.974 29.0379C299.756 26.9739 301.538 24.8816 303.688 23.2416C307.422 20.3576 311.326 17.615 315.372 15.1834C320.237 12.2429 321.454 13.0345 321.878 18.8308C321.906 19.3398 322.246 19.7921 322.613 20.7818C323.236 19.7073 324.056 18.9439 323.971 18.2936C323.49 13.8262 326.517 11.3663 329.12 8.5389C331.751 5.68317 334.466 4.15635 338.653 4.4391C341.708 4.63702 344.593 4.01498 347.507 5.8811C348.526 6.53141 351.015 5.73972 352.401 4.89149C354.862 3.39294 357.154 2.5447 360.096 3.13847C361.821 3.47776 363.716 2.9971 365.527 2.884C373.052 2.37506 380.605 1.86612 388.158 1.35718C387.535 9.83953 387.507 9.92435 396.474 10.7726C399.841 11.0836 403.264 10.8291 406.998 10.8291C407.337 9.58506 407.705 8.28443 408.101 6.8707C408.752 6.95553 409.572 6.8707 409.713 7.15345C410.788 9.21749 412.146 11.2533 412.599 13.4869C413.589 18.4915 417.945 20.1314 421.255 22.7892C421.51 23.0154 422.839 21.9127 424.084 21.1776C422.387 19.6225 421.114 18.4632 419.586 17.0495C420.18 15.3531 421.029 13.7131 421.227 11.9884C421.397 10.5464 420.831 8.99129 420.406 6.41831C422.245 7.63411 423.094 8.11478 423.886 8.73682C424.735 9.38713 425.498 10.8009 426.29 10.7726C430.307 10.6878 432.401 13.3173 434.805 15.8903C437.153 18.4067 440.35 19.4246 443.744 19.4246C449.94 19.3963 455.795 18.3219 459.727 12.356C465.555 15.2117 467.478 11.1119 469.345 6.53141C472.882 8.28443 475.739 6.95553 478.483 5.06113C481.651 2.85572 485.046 1.30063 489.006 0.81996C492.089 0.452392 494.437 -0.197921 497.379 2.51643C499.727 4.69357 503.999 5.11768 507.535 5.62662C511.552 6.22039 511.58 5.90937 512.033 10.2071C512.061 10.4898 512.429 10.716 512.91 11.2815C513.73 10.8291 514.664 10.4333 515.456 9.8678C519.388 7.12517 522.188 7.40792 524.282 11.6208C525.979 15.042 528.525 14.3634 531.156 14.2786C533.249 10.2919 536.417 8.99129 540.887 10.1788C541.934 10.4616 542.952 10.8009 543.999 10.9422C545.074 11.0836 546.148 10.9705 547.506 10.9705C548.581 8.56717 549.6 6.30521 550.646 3.9867L555.455 5.4287L558.115 0C562.188 1.07443 561.283 4.72184 562.669 7.43619C566.714 5.37215 570.901 4.72184 575.172 6.41831C580.745 4.12808 586.346 6.27694 591.919 6.33349C594.097 6.33349 595.455 6.72933 597.209 8.84992C599.104 11.1684 603.093 12.2994 606.346 12.7518C609.684 13.2325 611.07 14.6745 611.919 17.615C612.343 19.0853 613.277 20.7252 614.493 21.63C616.785 23.383 617.096 25.3905 616.049 28.02C618.935 29.3489 620.971 31.0737 619.302 34.608C619.02 35.23 619.02 35.9652 619.246 36.6155C620.377 39.867 621.65 43.0621 622.81 46.3136C624.055 49.7348 621.198 51.1486 619.557 52.7602C619.981 60.564 613.616 65.0879 611.353 71.7889C616.078 71.9869 617.039 65.5686 622.188 65.9644C621.82 67.1519 621.65 68.1133 621.254 68.9615C620.971 69.6118 620.208 70.0925 620.01 70.7428C618.425 76.0584 616.841 81.374 615.483 86.7462C615.201 87.8489 615.851 89.1778 615.851 90.4218C615.851 91.4397 615.851 92.6273 615.314 93.4189C613.164 96.7271 610.844 99.9221 608.581 103.174C606.261 106.453 608.638 109.422 608.977 112.674L614.889 113.72L622.782 105.86C621.113 102.947 619.896 99.5262 622.923 95.8506C623.602 95.0306 623.036 93.1645 623.036 91.5811C626.884 90.4501 630.307 89.9977 632.428 94.5782C637.379 92.0052 640.66 96.1898 644.621 97.3774C645.837 97.7449 646.176 100.997 647.167 103.513L650.08 105.605C649.486 109.479 648.949 112.928 648.326 116.915H640.264C640.236 117.085 640.123 117.339 640.179 117.424C645.102 122.485 645.045 128.847 645.215 135.209C645.271 137.471 645.611 139.704 646.092 141.881C647.478 147.989 646.601 149.629 640.858 150.364C639.67 150.533 637.945 150.76 637.435 151.551C634.72 155.821 631.07 155.849 627.336 154.322L622.046 159.751C622.471 162.183 623.178 164.84 623.376 167.555C623.687 171.824 622.301 173.181 618.114 173.294C616.587 173.323 615.087 173.436 613.475 173.492C613.56 176.687 615.625 176.744 617.237 177.366C623.659 179.798 624.706 183.926 620.123 188.93C619.133 190.005 618.058 190.994 617.011 192.012C614.71 194.312 611.731 195.358 608.072 195.151C607.619 198.968 605.837 201.286 601.452 201.428C599.529 201.484 597.633 203.294 595.512 204.453C594.607 203.831 593.617 203.152 592.598 202.445C592.061 202.756 591.467 202.954 591.184 203.35C589.373 205.838 587.421 208.27 585.894 210.928C584.366 213.614 583.008 216.441 582.018 219.382C575.908 237.76 566.431 254.725 559.02 272.538C556.983 277.429 552.909 280.624 548.977 283.848C547.506 285.063 545.951 286.166 544.395 287.269C535.286 293.715 528.581 302.056 524.876 312.546C521.82 321.17 516.276 328.634 509.43 334.742C506.177 337.654 503.094 340.99 500.802 344.694C490.449 361.32 477.973 376.305 466.262 391.913C461.821 397.822 458.2 404.495 455.032 411.224C448.497 425.164 448.525 439.499 454.381 453.664C456.87 459.715 459.897 465.568 463.207 471.223C466.856 477.471 467.761 483.692 465.328 490.563C462.613 498.225 462.104 506.198 462.217 514.285C462.5 531.956 462.5 549.656 462.867 567.328C463.009 574.057 462.867 581.013 464.508 587.431C470.703 611.549 477.691 635.413 490.845 656.958C491.948 658.768 493.985 659.87 496.106 659.729C497.492 659.616 498.907 659.729 500.293 659.729C750.844 659.729 1001.42 659.757 1251.97 659.729C1315.28 659.729 1378.59 659.39 1441.9 659.192C1443.54 659.192 2007.27 658.994 2008.92 658.881V672L2009 671.745ZM138.399 368.643C144.453 367.088 146.886 368.643 146.461 373.958C146.32 375.825 145.726 378.454 147.791 378.567C151.78 378.822 154.75 382.837 159.021 381.282C159.191 381.225 159.276 381.027 159.417 380.914C163.18 378.398 166.999 377.295 171.185 380.038C171.61 380.32 172.373 380.603 172.713 380.433C176.39 378.398 178.852 381.027 181.511 382.752C182.048 382.271 182.501 381.96 182.84 381.564C185.98 377.776 187.338 377.832 190.506 381.197C192.43 383.261 194.636 385.268 197.098 386.625C204.339 390.584 205.584 395.532 200.634 402.176C199.361 403.873 198.059 405.569 196.107 408.142C198.597 407.916 200.068 408.058 201.313 407.605C208.3 405.032 215.485 402.798 222.133 399.519C231.044 395.164 240.351 393.213 250.11 393.044C253.929 392.959 257.776 392.931 261.595 393.129C276.588 393.92 290.845 397.115 303.292 406.107C308.328 409.726 313.25 413.486 318.257 417.162C326.602 423.326 335.824 427.539 346.149 429.066C352.09 429.942 358.059 430.649 364.056 431.299C368.582 431.78 373.108 432.232 377.663 432.374C381.17 432.487 384.084 431.186 385.385 427.312C384.848 426.492 384.31 425.531 383.632 424.683C376.135 415.296 368.186 406.248 364.141 394.571C362.67 390.301 359.247 387.276 355.173 385.353C346.772 381.395 338.455 377.154 328.809 376.984C325.357 376.927 321.906 376.418 318.483 375.853C297.437 372.347 276.164 370.594 254.976 368.36C239.785 366.777 224.594 364.345 209.658 361.235C192.911 357.729 176.447 353.007 159.729 348.794C155.91 352.64 155.881 352.611 150.252 354.308C148.696 354.788 146.801 355.184 145.839 356.287C143.18 359.284 139.785 360.132 136.136 360.443C133.76 360.641 131.355 360.472 128.838 360.472C129.997 363.553 131.78 365.618 135.287 365.391C137.833 365.222 138.286 366.862 138.512 368.784C136.193 368.784 134.241 369.406 132.657 371.923C135.966 372.403 137.437 370.961 138.399 368.643ZM545.017 196.451C543.15 196.819 541.368 197.299 539.586 197.497C535.06 198.006 531.637 201.597 531.127 206.178C529.6 219.608 525.441 232.218 517.69 243.274C503.914 262.981 489.798 282.462 475.597 301.887C469.713 309.945 465.215 318.569 462.641 328.182C461.708 331.688 460.661 335.194 459.586 338.672C455.286 352.781 450.958 366.89 446.658 380.999C445.385 385.183 445.131 389.368 446.602 394.514C448.808 392.704 450.562 391.489 452.061 390.018C456.729 385.41 461.283 380.688 465.951 376.051C470.42 371.612 474.126 366.692 476.163 360.698C480.236 348.738 487.818 339.322 497.323 331.349C505.187 324.761 510.731 316.703 515.116 307.457C519.444 298.409 524.932 290.012 532.74 283.424C543.037 274.715 549.487 263.745 551.41 250.399C552.655 241.775 553.56 233.067 554.296 224.358C554.861 217.487 554.946 210.588 555.257 204.114C551.523 201.399 546.658 201.088 544.989 196.451H545.017ZM403.66 499.695L404.933 499.045C403.32 489.94 401.991 480.751 399.954 471.732C398.653 466.02 396.078 460.676 390.534 457.566C379.388 451.318 367.931 445.776 355.343 443.005C345.159 440.771 335.287 437.52 326.093 432.543C315.513 426.804 305.131 420.753 294.58 414.957C276.249 404.891 256.645 400.621 236.022 404.806C223.378 407.351 211.1 411.762 198.314 415.437C204.17 419.876 204.735 425.39 201.454 432.119C205.16 432.317 208.385 431.865 211.157 432.769C213.929 433.674 216.277 435.908 218.257 437.209C221.171 436.36 223.66 435.286 226.235 435.003C228.922 434.72 231.666 435.088 234.382 435.342C236.334 435.512 238.795 435.371 240.068 436.473C241.426 437.633 241.624 440.093 242.189 441.563C244.877 442.213 248.384 441.987 249.799 443.599C252.26 446.426 255.117 447.076 258.314 447.614C280.775 451.233 303.207 455.135 325.725 458.414C346.715 461.468 365.725 469.046 383.009 481.317C390.562 486.689 397.578 492.627 403.66 499.695ZM423.886 482.476C424.367 482.419 424.876 482.335 425.357 482.278C425.357 480.497 425.442 478.687 425.357 476.906C424.678 465.455 424.423 453.947 423.207 442.552C420.718 419.424 415.286 397.002 405.612 375.711C401.312 366.268 396.842 356.881 392.825 347.296C387.79 335.307 380.35 325.185 370.93 316.25C363.264 308.984 356.163 301.123 348.808 293.546C348.214 292.924 347.479 292.415 346.8 291.849C344.169 293.037 341.736 294.14 339.105 295.299C342.528 304.262 345.782 312.914 349.12 321.566C350.053 323.941 351.298 326.175 352.288 328.521C353.335 331.01 354.551 333.498 355.117 336.127C358.342 351.282 363.999 365.363 372.712 378.228C375.682 382.61 378.172 387.276 381.029 391.715C385.244 398.303 389.657 404.778 393.872 411.394C396.701 415.861 399.728 420.244 401.906 425.022C409.572 441.761 416.389 458.839 421.877 476.454C422.5 478.461 423.235 480.469 423.886 482.476ZM402.783 225.235C404.225 226.083 405.385 227.327 406.149 227.129C410.647 225.857 411.807 228.543 412.967 232.021C414.353 236.233 416.616 237.336 420.916 236.629C421.821 236.488 422.754 236.431 423.603 236.092C427.365 234.678 430.817 235.442 433.985 237.591C437.634 240.079 441.679 240.842 445.951 240.503C448.667 240.277 451.439 240.022 454.041 239.287C456.757 238.524 458.766 238.637 460.944 240.729C463.122 242.793 467.139 247.345 468.016 250.031C468.129 250.371 468.299 250.71 468.497 251.021C470.364 253.82 470.081 256.224 468.016 258.994C466.997 260.352 466.347 263.179 467.082 264.451C469.94 269.399 466.913 273.867 467.082 278.956C464.65 278.673 462.754 278.447 460.321 278.164C460.661 285.403 458.172 292.443 460.435 300.925C462.924 298.466 464.734 297.052 466.064 295.271C477.634 279.804 489.232 264.31 500.576 248.674C503.772 244.263 506.29 239.372 508.978 234.622C511.297 230.522 511.891 226.366 509.798 221.785C508.497 218.929 508.185 215.65 507.365 212.568C507.195 211.946 506.743 211.408 506.375 210.871C505.328 209.429 504.225 208.015 502.98 206.347C502.443 206.998 501.707 207.591 501.396 208.355C499.557 212.879 497.096 216.413 491.41 215.763C490.788 215.678 489.996 216.159 489.402 216.554C486.517 218.364 484.649 217.516 483.744 213.783C481.651 215.48 480.01 216.809 478.341 218.166C475.908 218.025 474.692 216.639 473.702 214.349C472.118 210.617 471.043 206.573 467.676 203.746C466.686 202.898 466.29 201.258 465.809 199.901C465.385 198.713 465.187 197.441 464.932 196.197C464.536 194.274 463.688 192.351 461.594 192.549C460.265 192.662 458.879 194.02 457.889 195.151C456.842 196.366 456.389 198.063 455.399 199.363C453.702 201.625 452.57 201.682 450.477 199.816C449.826 199.222 449.374 198.43 448.638 197.497C448.016 198.43 447.394 199.137 447.026 199.929C445.074 204.227 443.15 208.553 441.34 212.907C440.095 215.904 438.511 218.929 434.89 218.59C431.609 218.279 427.846 217.629 425.3 215.763C420.746 212.398 415.456 211.041 410.336 208.383C408.865 211.239 406.545 213.755 406.517 216.3C406.517 219.834 405.753 222.605 402.698 225.291L402.783 225.235ZM279.445 313.677C279.445 313.677 279.021 314.045 278.795 314.526C276.107 320.294 274.664 326.203 277.154 332.48C278.399 335.647 278.681 338.87 276.956 341.98C275.032 345.458 272.288 345.967 268.837 343.818C267.366 342.913 265.527 342.517 263.943 341.782C261.68 340.736 259.417 339.662 257.295 338.389C255.909 337.541 254.919 336.014 253.505 335.307C249.346 333.272 247.536 330.19 248.328 325.581C248.611 323.997 248.611 322.358 247.112 321.764C244.962 324.224 243.236 326.457 241.256 328.408C238.427 331.179 237.946 332.621 240.181 336.014C242.783 339.973 245.329 344.101 248.611 347.409C255.457 354.308 262.868 360.358 273.165 361.603C294.127 364.147 315.089 366.946 336.022 369.633C336.927 369.746 337.861 369.774 338.738 369.633C341.878 369.067 342.868 366.664 340.859 364.119C337.578 359.963 334.268 355.835 330.704 351.933C320.152 340.368 309.431 328.917 298.823 317.381C297.267 315.685 295.626 314.78 293.193 314.723C288.922 314.639 284.65 314.13 279.417 313.706L279.445 313.677ZM413.476 283.932C412.825 285.657 412.344 286.647 412.118 287.693C409.402 298.833 410.336 309.549 414.579 320.294C418.907 331.264 422.302 342.63 426.036 353.827C427.309 357.616 428.327 361.489 429.628 365.278C430.251 367.06 431.213 368.728 432.259 370.99C435.484 366.975 436.503 362.931 437.266 358.86C438.115 354.223 438.539 349.501 439.077 344.807C440.548 332.169 442.16 319.53 443.348 306.863C443.914 300.897 443.773 294.846 443.688 288.852C443.631 285.516 441.793 283.932 438.737 284.922C434.636 286.223 430.873 285.177 426.913 284.696C422.472 284.13 417.945 284.159 413.561 283.932H413.476ZM187.225 345.599C187.281 346.052 187.338 346.476 187.395 346.928C208.837 351.311 230.28 355.721 251.723 360.104C251.949 359.765 252.147 359.425 252.373 359.086C249.827 356.344 247.281 353.573 244.735 350.802C241.539 347.324 237.946 344.129 235.287 340.255C231.949 335.392 227.989 333.017 222.02 333.639C220.011 333.837 217.578 333.441 215.881 332.423C209.007 328.295 205.103 329.2 200.379 335.816C198.54 338.389 195.796 340.368 193.222 342.291C191.412 343.648 189.233 344.496 187.225 345.543V345.599ZM353.25 283.056C352.825 283.197 352.429 283.339 352.005 283.508C369.77 301.067 387.535 318.597 406.064 336.919C405.187 333.3 404.763 330.472 403.801 327.786C401.283 320.774 398.681 313.79 395.796 306.92C394.268 303.272 392.146 299.823 390.11 296.43C388.525 293.772 386.064 292.585 382.868 292.33C379.077 292.019 375.315 291.256 371.581 290.436C364.876 288.965 363.575 286.025 366.687 279.946C366.8 279.748 366.545 279.38 366.404 278.815C364.339 279.041 361.991 279.918 360.18 279.296C358.228 278.645 356.757 276.553 355.088 275.111C354.438 277.938 353.844 280.511 353.278 283.084L353.25 283.056ZM316.56 319.53C317.154 320.237 317.861 321.283 318.766 322.188C325.357 328.748 331.977 335.279 338.625 341.754C339.671 342.772 340.859 343.62 342.104 344.412C345.725 346.702 348.271 345.627 348.356 341.415C348.412 338.389 347.79 335.222 346.828 332.367C343.603 322.697 340.096 313.14 336.673 303.527C335.824 301.152 334.862 298.833 333.787 295.977C331.637 296.458 329.657 296.628 327.847 297.335C323.236 299.116 322.585 303.385 326.291 306.722C327.224 307.57 328.582 308.107 329.233 309.097C329.827 310.03 330.082 311.5 329.77 312.546C329.572 313.225 328.101 313.96 327.196 313.96C325.074 313.96 322.981 313.564 321.312 313.366C319.643 315.543 318.2 317.438 316.56 319.53ZM562.33 199.137C559.67 201.314 559.501 203.972 559.642 206.771C560.208 218.449 559.699 230.041 558.001 241.662C557.322 246.299 556.955 251.162 557.945 256.732C563.178 250.116 566.686 243.641 568.808 236.403C570.646 230.098 572.513 223.821 574.437 217.572C575.795 213.133 575.54 208.694 574.946 204.481C570.561 202.615 566.573 200.919 562.33 199.137ZM577.52 208.355C581.905 203.774 585.922 199.59 590.137 195.151C588.213 192.86 586.488 190.825 584.253 188.139C582.188 190.146 579.02 191.871 579.048 193.539C579.133 197.78 577.888 201.597 577.039 205.556C576.87 206.291 577.294 207.167 577.52 208.327V208.355ZM549.6 191.786C549.571 192.238 549.543 192.691 549.487 193.115H552.061C552.089 192.832 552.146 192.521 552.174 192.238L549.6 191.786Z" fill="#00382A"/>
<path d="M1074.35 181.409C1061.25 201.145 1060.32 222.011 1060.35 243.104C1060.4 332.565 1060.35 422.053 1060.43 511.514C1060.43 519.714 1061.08 527.913 1061.71 536.084C1062.67 548.214 1066.23 559.326 1075.45 568.091C1069.46 570.41 1019.84 570.89 1009.48 568.911C1010.05 554.067 1011.07 539.223 1011.1 524.351C1011.24 426.662 1011.24 328.974 1011.1 231.285C1011.1 221.276 1010.08 211.239 1009.43 201.23C1009.26 198.883 1008.55 196.564 1007.99 193.709H859.358C858.736 195.857 857.859 198.091 857.435 200.381C845.299 264.649 833.503 328.945 821.027 393.129C815.115 423.552 808.693 453.975 797.435 483.042C791.126 499.299 783.092 514.624 771.805 528.055C756.501 546.207 737.124 558.393 714.917 566.366C697.35 572.672 679.161 576.319 660.773 579.005C654.889 579.882 648.751 579.146 642.725 579.146C642.527 578.553 642.329 577.959 642.159 577.365C644.366 576.347 646.516 575.188 648.779 574.34C675.455 564.274 699.189 549.996 716.784 526.952C729.825 509.874 739.359 490.902 746.459 470.657C756.756 441.308 764.083 411.168 769.825 380.66C779.132 331.038 788.1 281.36 796.954 231.653C799.641 216.611 800.377 201.399 796.133 186.385C795.822 185.255 795.907 184.01 795.709 181.579C888.354 180.957 980.659 181.183 1074.41 181.409H1074.35Z" fill="#00382A"/>
<path d="M1209.03 500.063C1211.66 502.918 1213.53 505.265 1215.68 507.245C1246.85 535.887 1283.97 552.484 1325.24 559.976C1371.21 568.346 1412.65 556.499 1450.53 530.345C1458 525.171 1464.93 519.205 1472.74 513.097C1479.13 520.618 1485.13 527.687 1492.03 535.83C1484.25 540.835 1477.35 545.783 1470.02 549.882C1446.63 563.03 1421.36 570.947 1394.72 573.463C1357.66 576.969 1320.43 577.789 1283.71 570.353C1225.72 558.619 1175.99 532.409 1140.09 483.89C1089.03 414.9 1091.89 326.486 1146.91 260.408C1173.53 228.43 1207.25 206.941 1245.95 192.662C1276.24 181.466 1307.53 175.726 1339.84 176.235C1359.3 176.546 1378.99 175.811 1398.14 178.497C1442.16 184.632 1480.97 202.785 1512.09 235.131C1533.75 257.665 1547.87 284.074 1550.36 315.968C1550.93 323.178 1549.06 328.041 1542.72 331.773C1516.24 347.352 1490.39 364.062 1463.43 378.737C1383.15 422.336 1300.86 461.864 1216.22 496.359C1214.07 497.235 1212.06 498.479 1209 500.091L1209.03 500.063ZM1195.17 482.702C1199.13 481.175 1202.55 479.988 1205.86 478.574C1275.93 448.858 1345.01 416.964 1411.35 379.529C1433.84 366.833 1455.59 352.753 1477.52 339.068C1490.22 331.151 1495.62 319.219 1495.82 304.403C1495.96 294.14 1493.75 284.498 1489.71 275.196C1478.14 248.618 1459.13 228.514 1434.66 213.557C1401.76 193.454 1366.94 182.286 1327.7 190.57C1276.1 201.456 1231.27 224.019 1197.12 265.102C1144.22 328.748 1144.59 408.595 1187.22 472.552C1189.54 476.029 1192.37 479.14 1195.14 482.702H1195.17Z" fill="#00382A"/>
<path d="M1968.35 209.627C1963 219.325 1958.19 228.062 1952.96 237.534C1946.09 233.152 1939.38 229.108 1932.9 224.726C1906.77 207.054 1877.91 196.282 1846.96 190.796C1791.35 180.929 1706.91 206.093 1661.59 254.244C1605.81 313.508 1602.18 393.27 1628.78 450.215C1648.69 492.881 1681.93 522.258 1724.59 541.372C1752.4 553.841 1781.62 560.796 1812 562.465C1834.12 563.68 1855.82 560.316 1876.81 553.558C1889.51 549.458 1902.1 544.539 1914.04 538.629C1924.3 533.54 1933.61 526.471 1943.34 520.279C1946.11 518.526 1948.86 516.745 1952.25 514.568C1957.63 523.615 1962.66 532.126 1968.24 541.513C1964.73 543.521 1962.01 545.274 1959.16 546.716C1930.02 561.418 1898.96 570.268 1866.68 573.435C1827.22 577.309 1787.59 577.394 1748.32 570.438C1703.8 562.549 1662.81 546.178 1627.93 516.83C1593.81 488.103 1570.36 452.562 1562.72 407.944C1553.08 351.706 1566.91 301.576 1604.11 258.372C1638.56 218.364 1683.37 195.631 1734.15 183.756C1756.47 178.553 1779.13 175.783 1802.07 176.235C1824.28 176.687 1846.6 176.207 1868.66 178.327C1900.37 181.381 1930.73 190.372 1959.35 204.679C1962.04 206.008 1964.59 207.563 1968.38 209.684L1968.35 209.627Z" fill="#00382A"/>
</svg>
