<svg width="15.000000" height="22.000000" viewBox="0 0 15 22" fill="none" xmlns="http://www.w3.org/2000/svg" xmlns:xlink="http://www.w3.org/1999/xlink">

	<path id="Геолокация 1" d="M7.49 0C3.36 0 0 3.63 0 8.09C0 9.26 0.22 10.37 0.65 11.4C2.53 15.83 6.12 20.51 7.18 21.84C7.22 21.89 7.27 21.93 7.32 21.95C7.38 21.98 7.43 22 7.5 22C7.56 22 7.61 21.98 7.67 21.95C7.72 21.93 7.77 21.89 7.81 21.84C8.87 20.51 12.46 15.83 14.34 11.4C14.77 10.37 15 9.26 15 8.09C14.99 3.63 11.63 0 7.49 0ZM7.49 12.3C5.35 12.3 3.6 10.41 3.6 8.09C3.6 5.77 5.35 3.89 7.49 3.89C9.64 3.89 11.39 5.77 11.39 8.09C11.39 10.41 9.64 12.3 7.49 12.3Z" fill="#5E7E73" fill-opacity="1.000000" fill-rule="nonzero"/>
</svg>
